<mxfile host="app.diagrams.net" agent="Mozilla/5.0 (Windows NT 10.0; Win64; x64) AppleWebKit/537.36 (KHTML, like Gecko) Chrome/135.0.0.0 Safari/537.36" version="26.2.14">
  <diagram id="C5RBs43oDa-KdzZeNtuy" name="Page-1">
    <mxGraphModel dx="1649" dy="508" grid="1" gridSize="10" guides="1" tooltips="1" connect="1" arrows="1" fold="1" page="1" pageScale="1" pageWidth="827" pageHeight="1169" math="0" shadow="0">
      <root>
        <mxCell id="WIyWlLk6GJQsqaUBKTNV-0" />
        <mxCell id="WIyWlLk6GJQsqaUBKTNV-1" parent="WIyWlLk6GJQsqaUBKTNV-0" />
        <mxCell id="HvuJs7WOY1dfeLT5cr4M-6" style="edgeStyle=orthogonalEdgeStyle;rounded=0;orthogonalLoop=1;jettySize=auto;html=1;exitX=0.5;exitY=1;exitDx=0;exitDy=0;entryX=0.5;entryY=0;entryDx=0;entryDy=0;fontFamily=宋体;fontSize=14;fontColor=default;" parent="WIyWlLk6GJQsqaUBKTNV-1" source="WIyWlLk6GJQsqaUBKTNV-3" target="HvuJs7WOY1dfeLT5cr4M-1" edge="1">
          <mxGeometry relative="1" as="geometry" />
        </mxCell>
        <mxCell id="WIyWlLk6GJQsqaUBKTNV-3" value="开始" style="rounded=1;whiteSpace=wrap;html=1;fontSize=14;glass=0;strokeWidth=1;shadow=0;arcSize=47;fontFamily=宋体;" parent="WIyWlLk6GJQsqaUBKTNV-1" vertex="1">
          <mxGeometry x="180" y="90" width="80" height="30" as="geometry" />
        </mxCell>
        <mxCell id="HvuJs7WOY1dfeLT5cr4M-8" style="edgeStyle=orthogonalEdgeStyle;rounded=0;orthogonalLoop=1;jettySize=auto;html=1;exitX=0.5;exitY=1;exitDx=0;exitDy=0;fontFamily=宋体;fontSize=14;fontColor=default;" parent="WIyWlLk6GJQsqaUBKTNV-1" source="HvuJs7WOY1dfeLT5cr4M-0" target="HvuJs7WOY1dfeLT5cr4M-2" edge="1">
          <mxGeometry relative="1" as="geometry" />
        </mxCell>
        <mxCell id="HvuJs7WOY1dfeLT5cr4M-0" value="填写信息" style="rounded=0;whiteSpace=wrap;html=1;fontFamily=宋体;fontSize=14;" parent="WIyWlLk6GJQsqaUBKTNV-1" vertex="1">
          <mxGeometry x="165" y="206" width="110" height="30" as="geometry" />
        </mxCell>
        <mxCell id="HvuJs7WOY1dfeLT5cr4M-7" style="edgeStyle=orthogonalEdgeStyle;rounded=0;orthogonalLoop=1;jettySize=auto;html=1;exitX=0.5;exitY=1;exitDx=0;exitDy=0;entryX=0.5;entryY=0;entryDx=0;entryDy=0;fontFamily=宋体;fontSize=14;fontColor=default;" parent="WIyWlLk6GJQsqaUBKTNV-1" source="HvuJs7WOY1dfeLT5cr4M-1" target="HvuJs7WOY1dfeLT5cr4M-0" edge="1">
          <mxGeometry relative="1" as="geometry" />
        </mxCell>
        <mxCell id="HvuJs7WOY1dfeLT5cr4M-1" value="用户点击修改&lt;div&gt;打开编辑对话框&lt;/div&gt;" style="rounded=0;whiteSpace=wrap;html=1;fontFamily=宋体;fontSize=14;" parent="WIyWlLk6GJQsqaUBKTNV-1" vertex="1">
          <mxGeometry x="165" y="140" width="110" height="40" as="geometry" />
        </mxCell>
        <mxCell id="HvuJs7WOY1dfeLT5cr4M-9" style="edgeStyle=orthogonalEdgeStyle;rounded=0;orthogonalLoop=1;jettySize=auto;html=1;exitX=0.5;exitY=1;exitDx=0;exitDy=0;entryX=0.5;entryY=0;entryDx=0;entryDy=0;fontFamily=宋体;fontSize=14;fontColor=default;" parent="WIyWlLk6GJQsqaUBKTNV-1" source="HvuJs7WOY1dfeLT5cr4M-2" target="HvuJs7WOY1dfeLT5cr4M-4" edge="1">
          <mxGeometry relative="1" as="geometry" />
        </mxCell>
        <mxCell id="HvuJs7WOY1dfeLT5cr4M-12" style="edgeStyle=orthogonalEdgeStyle;rounded=0;orthogonalLoop=1;jettySize=auto;html=1;exitX=1;exitY=0.5;exitDx=0;exitDy=0;fontFamily=宋体;fontSize=14;fontColor=default;" parent="WIyWlLk6GJQsqaUBKTNV-1" source="HvuJs7WOY1dfeLT5cr4M-2" edge="1">
          <mxGeometry relative="1" as="geometry">
            <mxPoint x="220" y="190" as="targetPoint" />
            <Array as="points">
              <mxPoint x="320" y="279" />
              <mxPoint x="320" y="190" />
            </Array>
          </mxGeometry>
        </mxCell>
        <mxCell id="HvuJs7WOY1dfeLT5cr4M-13" value="否" style="edgeLabel;html=1;align=center;verticalAlign=middle;resizable=0;points=[];rounded=0;strokeColor=default;fontFamily=宋体;fontSize=14;fontColor=default;fillColor=default;" parent="HvuJs7WOY1dfeLT5cr4M-12" vertex="1" connectable="0">
          <mxGeometry x="-0.8335" relative="1" as="geometry">
            <mxPoint as="offset" />
          </mxGeometry>
        </mxCell>
        <mxCell id="HvuJs7WOY1dfeLT5cr4M-2" value="&lt;font style=&quot;font-size: 14px;&quot; face=&quot;宋体&quot;&gt;是否确定新增&lt;/font&gt;" style="rhombus;whiteSpace=wrap;html=1;" parent="WIyWlLk6GJQsqaUBKTNV-1" vertex="1">
          <mxGeometry x="165" y="254" width="110" height="50" as="geometry" />
        </mxCell>
        <mxCell id="HvuJs7WOY1dfeLT5cr4M-18" style="edgeStyle=orthogonalEdgeStyle;rounded=0;orthogonalLoop=1;jettySize=auto;html=1;exitX=0.5;exitY=1;exitDx=0;exitDy=0;entryX=0.5;entryY=0;entryDx=0;entryDy=0;fontFamily=宋体;fontSize=14;fontColor=default;" parent="WIyWlLk6GJQsqaUBKTNV-1" source="HvuJs7WOY1dfeLT5cr4M-4" target="HvuJs7WOY1dfeLT5cr4M-16" edge="1">
          <mxGeometry relative="1" as="geometry" />
        </mxCell>
        <mxCell id="HvuJs7WOY1dfeLT5cr4M-27" style="edgeStyle=orthogonalEdgeStyle;rounded=0;orthogonalLoop=1;jettySize=auto;html=1;exitX=1;exitY=0.5;exitDx=0;exitDy=0;fontFamily=宋体;fontSize=14;fontColor=default;entryX=-0.007;entryY=0.634;entryDx=0;entryDy=0;entryPerimeter=0;" parent="WIyWlLk6GJQsqaUBKTNV-1" source="HvuJs7WOY1dfeLT5cr4M-4" target="HvuJs7WOY1dfeLT5cr4M-23" edge="1">
          <mxGeometry relative="1" as="geometry">
            <mxPoint x="300" y="366" as="targetPoint" />
          </mxGeometry>
        </mxCell>
        <mxCell id="HvuJs7WOY1dfeLT5cr4M-4" value="&lt;font style=&quot;font-size: 14px;&quot; face=&quot;宋体&quot;&gt;已经设置发货&lt;/font&gt;&lt;div&gt;&lt;font style=&quot;font-size: 14px;&quot; face=&quot;宋体&quot;&gt;但未填单号&lt;/font&gt;&lt;/div&gt;" style="rhombus;whiteSpace=wrap;html=1;" parent="WIyWlLk6GJQsqaUBKTNV-1" vertex="1">
          <mxGeometry x="152.5" y="330" width="135" height="70" as="geometry" />
        </mxCell>
        <mxCell id="HvuJs7WOY1dfeLT5cr4M-15" value="是" style="text;html=1;align=center;verticalAlign=middle;whiteSpace=wrap;rounded=0;fontFamily=宋体;fontSize=14;fontColor=default;spacing=0;" parent="WIyWlLk6GJQsqaUBKTNV-1" vertex="1">
          <mxGeometry x="230" y="304" width="20" height="26" as="geometry" />
        </mxCell>
        <mxCell id="HvuJs7WOY1dfeLT5cr4M-28" style="edgeStyle=orthogonalEdgeStyle;rounded=0;orthogonalLoop=1;jettySize=auto;html=1;exitX=0;exitY=0.5;exitDx=0;exitDy=0;entryX=1;entryY=0.5;entryDx=0;entryDy=0;fontFamily=宋体;fontSize=14;fontColor=default;" parent="WIyWlLk6GJQsqaUBKTNV-1" source="HvuJs7WOY1dfeLT5cr4M-16" target="HvuJs7WOY1dfeLT5cr4M-26" edge="1">
          <mxGeometry relative="1" as="geometry" />
        </mxCell>
        <mxCell id="HvuJs7WOY1dfeLT5cr4M-35" style="edgeStyle=orthogonalEdgeStyle;rounded=0;orthogonalLoop=1;jettySize=auto;html=1;exitX=0.5;exitY=1;exitDx=0;exitDy=0;entryX=0.5;entryY=0;entryDx=0;entryDy=0;fontFamily=宋体;fontSize=14;fontColor=default;" parent="WIyWlLk6GJQsqaUBKTNV-1" source="HvuJs7WOY1dfeLT5cr4M-16" target="HvuJs7WOY1dfeLT5cr4M-21" edge="1">
          <mxGeometry relative="1" as="geometry" />
        </mxCell>
        <mxCell id="HvuJs7WOY1dfeLT5cr4M-16" value="&lt;font style=&quot;font-size: 14px;&quot; face=&quot;宋体&quot;&gt;已填写单号&lt;/font&gt;&lt;div&gt;&lt;font style=&quot;font-size: 14px;&quot; face=&quot;宋体&quot;&gt;但未设发货&lt;/font&gt;&lt;/div&gt;" style="rhombus;whiteSpace=wrap;html=1;" parent="WIyWlLk6GJQsqaUBKTNV-1" vertex="1">
          <mxGeometry x="150" y="420" width="140" height="60" as="geometry" />
        </mxCell>
        <mxCell id="HvuJs7WOY1dfeLT5cr4M-38" style="edgeStyle=orthogonalEdgeStyle;rounded=0;orthogonalLoop=1;jettySize=auto;html=1;exitX=0.5;exitY=1;exitDx=0;exitDy=0;entryX=0.5;entryY=0;entryDx=0;entryDy=0;fontFamily=宋体;fontSize=14;fontColor=default;" parent="WIyWlLk6GJQsqaUBKTNV-1" source="HvuJs7WOY1dfeLT5cr4M-21" target="HvuJs7WOY1dfeLT5cr4M-37" edge="1">
          <mxGeometry relative="1" as="geometry" />
        </mxCell>
        <mxCell id="HvuJs7WOY1dfeLT5cr4M-21" value="更新数据库记录" style="rounded=0;whiteSpace=wrap;html=1;align=center;verticalAlign=middle;spacing=0;fontFamily=宋体;fontSize=14;fontColor=default;fillColor=none;gradientColor=none;" parent="WIyWlLk6GJQsqaUBKTNV-1" vertex="1">
          <mxGeometry x="160" y="500" width="120" height="30" as="geometry" />
        </mxCell>
        <mxCell id="HvuJs7WOY1dfeLT5cr4M-29" style="edgeStyle=orthogonalEdgeStyle;rounded=0;orthogonalLoop=1;jettySize=auto;html=1;exitX=0.5;exitY=0;exitDx=0;exitDy=0;fontFamily=宋体;fontSize=14;fontColor=default;" parent="WIyWlLk6GJQsqaUBKTNV-1" source="HvuJs7WOY1dfeLT5cr4M-23" edge="1">
          <mxGeometry relative="1" as="geometry">
            <mxPoint x="220" y="190" as="targetPoint" />
            <Array as="points">
              <mxPoint x="391" y="190" />
            </Array>
          </mxGeometry>
        </mxCell>
        <mxCell id="HvuJs7WOY1dfeLT5cr4M-23" value="弹出报错&lt;div&gt;“请填写物流单号”&lt;/div&gt;" style="rounded=0;whiteSpace=wrap;html=1;fontFamily=宋体;fontSize=14;" parent="WIyWlLk6GJQsqaUBKTNV-1" vertex="1">
          <mxGeometry x="321" y="340" width="140" height="41" as="geometry" />
        </mxCell>
        <mxCell id="HvuJs7WOY1dfeLT5cr4M-32" style="edgeStyle=orthogonalEdgeStyle;rounded=0;orthogonalLoop=1;jettySize=auto;html=1;exitX=0.5;exitY=0;exitDx=0;exitDy=0;fontFamily=宋体;fontSize=14;fontColor=default;" parent="WIyWlLk6GJQsqaUBKTNV-1" source="HvuJs7WOY1dfeLT5cr4M-26" edge="1">
          <mxGeometry relative="1" as="geometry">
            <mxPoint x="220" y="190" as="targetPoint" />
            <Array as="points">
              <mxPoint x="50" y="190" />
            </Array>
          </mxGeometry>
        </mxCell>
        <mxCell id="HvuJs7WOY1dfeLT5cr4M-26" value="弹出报错&lt;div&gt;“请设置发货状态”&lt;/div&gt;" style="rounded=0;whiteSpace=wrap;html=1;fontFamily=宋体;fontSize=14;" parent="WIyWlLk6GJQsqaUBKTNV-1" vertex="1">
          <mxGeometry x="-20" y="429.5" width="140" height="41" as="geometry" />
        </mxCell>
        <mxCell id="HvuJs7WOY1dfeLT5cr4M-30" value="是" style="text;html=1;align=center;verticalAlign=middle;whiteSpace=wrap;rounded=0;fontFamily=宋体;fontSize=14;fontColor=default;spacing=0;" parent="WIyWlLk6GJQsqaUBKTNV-1" vertex="1">
          <mxGeometry x="290" y="340" width="20" height="26" as="geometry" />
        </mxCell>
        <mxCell id="HvuJs7WOY1dfeLT5cr4M-31" value="是" style="text;html=1;align=center;verticalAlign=middle;whiteSpace=wrap;rounded=0;fontFamily=宋体;fontSize=14;fontColor=default;spacing=0;" parent="WIyWlLk6GJQsqaUBKTNV-1" vertex="1">
          <mxGeometry x="132.5" y="420" width="20" height="26" as="geometry" />
        </mxCell>
        <mxCell id="HvuJs7WOY1dfeLT5cr4M-33" value="否" style="text;html=1;align=center;verticalAlign=middle;whiteSpace=wrap;rounded=0;fontFamily=宋体;fontSize=14;fontColor=default;" parent="WIyWlLk6GJQsqaUBKTNV-1" vertex="1">
          <mxGeometry x="220" y="480" width="40" height="20" as="geometry" />
        </mxCell>
        <mxCell id="HvuJs7WOY1dfeLT5cr4M-36" value="否" style="text;html=1;align=center;verticalAlign=middle;whiteSpace=wrap;rounded=0;fontFamily=宋体;fontSize=14;fontColor=default;" parent="WIyWlLk6GJQsqaUBKTNV-1" vertex="1">
          <mxGeometry x="230" y="410" width="40" height="20" as="geometry" />
        </mxCell>
        <mxCell id="HvuJs7WOY1dfeLT5cr4M-37" value="结束" style="rounded=1;whiteSpace=wrap;html=1;fontSize=14;glass=0;strokeWidth=1;shadow=0;arcSize=47;fontFamily=宋体;" parent="WIyWlLk6GJQsqaUBKTNV-1" vertex="1">
          <mxGeometry x="180" y="555" width="80" height="30" as="geometry" />
        </mxCell>
      </root>
    </mxGraphModel>
  </diagram>
</mxfile>
